<svg width="47" height="8" viewBox="0 0 47 8" fill="none" xmlns="http://www.w3.org/2000/svg">
<mask id="mask0_44_540" style="mask-type:alpha" maskUnits="userSpaceOnUse" x="0" y="0" width="47" height="8">
<path fill-rule="evenodd" clip-rule="evenodd" d="M4.4239 0.265653C4.62814 -0.0715019 5.1173 -0.0715018 5.32153 0.265653L6.31851 1.91151C6.39158 2.03215 6.51014 2.11828 6.64745 2.1505L8.52084 2.59009C8.9046 2.68014 9.05577 3.14536 8.79822 3.44379L7.541 4.90057C7.44885 5.00734 7.40357 5.14672 7.41536 5.28726L7.5762 7.2048C7.60914 7.59761 7.2134 7.88514 6.85 7.73242L5.07601 6.9869C4.94599 6.93226 4.79944 6.93226 4.66942 6.9869L2.89544 7.73242C2.53203 7.88514 2.13629 7.59761 2.16924 7.2048L2.33008 5.28726C2.34187 5.14672 2.29658 5.00734 2.20443 4.90057L0.947212 3.44379C0.68967 3.14536 0.840831 2.68014 1.22459 2.59009L3.09798 2.1505C3.23529 2.11828 3.35385 2.03215 3.42692 1.91151L4.4239 0.265653ZM42.2048 0.265653C42.409 -0.0715019 42.8982 -0.0715018 43.1024 0.265653L44.0994 1.91151C44.1725 2.03215 44.291 2.11828 44.4283 2.1505L46.3017 2.59009C46.6855 2.68014 46.8366 3.14536 46.5791 3.44379L45.3219 4.90057C45.2297 5.00734 45.1844 5.14672 45.1962 5.28726L45.3571 7.2048C45.39 7.59761 44.9943 7.88514 44.6309 7.73242L42.8569 6.9869C42.7269 6.93226 42.5803 6.93226 42.4503 6.9869L40.6763 7.73242C40.3129 7.88514 39.9172 7.59761 39.9501 7.2048L40.111 5.28726C40.1227 5.14672 40.0775 5.00734 39.9853 4.90057L38.7281 3.44379C38.4706 3.14536 38.6217 2.68014 39.0055 2.59009L40.8789 2.1505C41.0162 2.11828 41.1347 2.03215 41.2078 1.91151L42.2048 0.265653ZM14.7667 0.265653C14.5625 -0.0715018 14.0733 -0.0715019 13.8691 0.265653L12.8721 1.91151C12.799 2.03215 12.6805 2.11828 12.5432 2.1505L10.6698 2.59009C10.286 2.68014 10.1349 3.14536 10.3924 3.44379L11.6496 4.90057C11.7418 5.00734 11.7871 5.14672 11.7753 5.28726L11.6144 7.2048C11.5815 7.59761 11.9772 7.88514 12.3406 7.73242L14.1146 6.9869C14.2446 6.93226 14.3912 6.93226 14.5212 6.9869L16.2952 7.73242C16.6586 7.88514 17.0543 7.59761 17.0214 7.2048L16.8605 5.28726C16.8488 5.14672 16.894 5.00734 16.9862 4.90057L18.2434 3.44379C18.501 3.14536 18.3498 2.68014 17.966 2.59009L16.0926 2.1505C15.9553 2.11828 15.8368 2.03215 15.7637 1.91151L14.7667 0.265653ZM23.3144 0.265653C23.5186 -0.0715019 24.0078 -0.0715018 24.212 0.265653L25.209 1.91151C25.2821 2.03215 25.4006 2.11828 25.538 2.1505L27.4113 2.59009C27.7951 2.68014 27.9463 3.14536 27.6887 3.44379L26.4315 4.90057C26.3394 5.00734 26.2941 5.14672 26.3059 5.28726L26.4667 7.2048C26.4996 7.59761 26.1039 7.88514 25.7405 7.73242L23.9665 6.9869C23.8365 6.93226 23.6899 6.93226 23.5599 6.9869L21.7859 7.73242C21.4225 7.88514 21.0268 7.59761 21.0597 7.2048L21.2206 5.28726C21.2324 5.14672 21.1871 5.00734 21.0949 4.90057L19.8377 3.44379C19.5802 3.14536 19.7313 2.68014 20.1151 2.59009L21.9885 2.1505C22.1258 2.11828 22.2444 2.03215 22.3174 1.91151L23.3144 0.265653ZM33.6572 0.265653C33.453 -0.0715018 32.9638 -0.0715019 32.7596 0.265653L31.7626 1.91151C31.6895 2.03215 31.571 2.11828 31.4337 2.1505L29.5603 2.59009C29.1765 2.68014 29.0254 3.14536 29.2829 3.44379L30.5401 4.90057C30.6323 5.00734 30.6776 5.14672 30.6658 5.28726L30.5049 7.2048C30.472 7.59761 30.8677 7.88514 31.2311 7.73242L33.0051 6.9869C33.1351 6.93226 33.2817 6.93226 33.4117 6.9869L35.1857 7.73242C35.5491 7.88514 35.9448 7.59761 35.9119 7.2048L35.7511 5.28726C35.7393 5.14672 35.7845 5.00734 35.8767 4.90057L37.1339 3.44379C37.3915 3.14536 37.2403 2.68014 36.8565 2.59009L34.9831 2.1505C34.8458 2.11828 34.7273 2.03215 34.6542 1.91151L33.6572 0.265653Z" fill="#F16602"/>
</mask>
<g mask="url(#mask0_44_540)">
<path fill-rule="evenodd" clip-rule="evenodd" d="M4.4239 0.252866C4.62814 -0.0842887 5.1173 -0.0842887 5.32153 0.252866L6.31851 1.89873C6.39158 2.01936 6.51014 2.1055 6.64745 2.13772L8.52084 2.5773C8.9046 2.66735 9.05577 3.13258 8.79822 3.431L7.541 4.88778C7.44885 4.99456 7.40357 5.13393 7.41536 5.27448L7.5762 7.19202C7.60914 7.58483 7.2134 7.87235 6.85 7.71963L5.07601 6.97411C4.94599 6.91947 4.79944 6.91947 4.66942 6.97411L2.89544 7.71963C2.53203 7.87235 2.13629 7.58482 2.16924 7.19202L2.33008 5.27448C2.34187 5.13393 2.29658 4.99456 2.20443 4.88778L0.947212 3.431C0.68967 3.13258 0.840831 2.66735 1.22459 2.5773L3.09798 2.13772C3.23529 2.1055 3.35385 2.01936 3.42692 1.89873L4.4239 0.252866ZM42.2048 0.252866C42.409 -0.0842887 42.8982 -0.0842887 43.1024 0.252866L44.0994 1.89873C44.1725 2.01936 44.291 2.1055 44.4283 2.13772L46.3017 2.5773C46.6855 2.66735 46.8366 3.13258 46.5791 3.431L45.3219 4.88778C45.2297 4.99456 45.1844 5.13393 45.1962 5.27448L45.3571 7.19202C45.39 7.58483 44.9943 7.87235 44.6309 7.71963L42.8569 6.97411C42.7269 6.91947 42.5803 6.91947 42.4503 6.97411L40.6763 7.71963C40.3129 7.87235 39.9172 7.58482 39.9501 7.19202L40.111 5.27448C40.1227 5.13393 40.0775 4.99456 39.9853 4.88778L38.7281 3.431C38.4706 3.13258 38.6217 2.66735 39.0055 2.5773L40.8789 2.13772C41.0162 2.1055 41.1347 2.01936 41.2078 1.89873L42.2048 0.252866ZM14.7667 0.252866C14.5625 -0.0842887 14.0733 -0.0842887 13.8691 0.252866L12.8721 1.89873C12.799 2.01936 12.6805 2.1055 12.5432 2.13772L10.6698 2.5773C10.286 2.66735 10.1349 3.13258 10.3924 3.431L11.6496 4.88778C11.7418 4.99456 11.7871 5.13393 11.7753 5.27448L11.6144 7.19202C11.5815 7.58482 11.9772 7.87235 12.3406 7.71963L14.1146 6.97411C14.2446 6.91947 14.3912 6.91947 14.5212 6.97411L16.2952 7.71963C16.6586 7.87235 17.0543 7.58483 17.0214 7.19202L16.8605 5.27448C16.8488 5.13393 16.894 4.99456 16.9862 4.88778L18.2434 3.431C18.501 3.13258 18.3498 2.66735 17.966 2.5773L16.0926 2.13772C15.9553 2.1055 15.8368 2.01936 15.7637 1.89873L14.7667 0.252866ZM23.3144 0.252866C23.5186 -0.0842887 24.0078 -0.0842887 24.212 0.252866L25.209 1.89873C25.2821 2.01936 25.4006 2.1055 25.538 2.13772L27.4113 2.5773C27.7951 2.66735 27.9463 3.13258 27.6887 3.431L26.4315 4.88778C26.3394 4.99456 26.2941 5.13393 26.3059 5.27448L26.4667 7.19202C26.4996 7.58483 26.1039 7.87235 25.7405 7.71963L23.9665 6.97411C23.8365 6.91947 23.6899 6.91947 23.5599 6.97411L21.7859 7.71963C21.4225 7.87235 21.0268 7.58482 21.0597 7.19202L21.2206 5.27448C21.2324 5.13393 21.1871 4.99456 21.0949 4.88778L19.8377 3.431C19.5802 3.13258 19.7313 2.66735 20.1151 2.5773L21.9885 2.13772C22.1258 2.1055 22.2444 2.01936 22.3174 1.89873L23.3144 0.252866ZM33.6572 0.252866C33.453 -0.0842887 32.9638 -0.0842887 32.7596 0.252866L31.7626 1.89873C31.6895 2.01936 31.571 2.1055 31.4337 2.13772L29.5603 2.5773C29.1765 2.66735 29.0254 3.13258 29.2829 3.431L30.5401 4.88778C30.6323 4.99456 30.6776 5.13393 30.6658 5.27448L30.5049 7.19202C30.472 7.58482 30.8677 7.87235 31.2311 7.71963L33.0051 6.97411C33.1351 6.91947 33.2817 6.91947 33.4117 6.97411L35.1857 7.71963C35.5491 7.87235 35.9448 7.58483 35.9119 7.19202L35.7511 5.27448C35.7393 5.13393 35.7845 4.99456 35.8767 4.88778L37.1339 3.431C37.3915 3.13258 37.2403 2.66735 36.8565 2.5773L34.9831 2.13772C34.8458 2.1055 34.7273 2.01936 34.6542 1.89873L33.6572 0.252866Z" fill="#F16602"/>
<rect x="45" y="-1" width="6" height="16" fill="#D9D9D9"/>
</g>
</svg>
