<svg width="1074" height="300" viewBox="0 0 1074 300" fill="none" xmlns="http://www.w3.org/2000/svg">
<path d="M134.948 141.763L134.948 231.518C134.948 243.334 149.862 248.51 157.183 239.235L228.022 149.481C234.47 141.312 228.651 129.307 218.244 129.307L147.405 129.307C140.525 129.307 134.948 134.884 134.948 141.763Z" fill="#C84800"/>
<path d="M363.607 216.279C354.35 216.279 346.219 214.153 339.214 209.9C332.334 205.647 326.955 199.83 323.077 192.45C319.325 185.069 317.448 176.688 317.448 167.306C317.448 157.924 319.387 149.606 323.265 142.351C327.143 134.97 332.522 129.216 339.402 125.088C346.282 120.835 354.413 118.708 363.795 118.708C371.425 118.708 378.18 120.272 384.059 123.399C389.939 126.527 394.504 130.905 397.757 136.534V78.9296H413.518V214.028H399.258L397.757 198.642C394.755 203.145 390.439 207.21 384.81 210.838C379.181 214.466 372.113 216.279 363.607 216.279ZM365.296 202.582C371.55 202.582 377.054 201.143 381.808 198.266C386.686 195.264 390.439 191.136 393.066 185.882C395.818 180.628 397.194 174.499 397.194 167.494C397.194 160.489 395.818 154.359 393.066 149.106C390.439 143.852 386.686 139.786 381.808 136.909C377.054 133.907 371.55 132.406 365.296 132.406C359.166 132.406 353.662 133.907 348.784 136.909C344.03 139.786 340.277 143.852 337.525 149.106C334.899 154.359 333.585 160.489 333.585 167.494C333.585 174.499 334.899 180.628 337.525 185.882C340.277 191.136 344.03 195.264 348.784 198.266C353.662 201.143 359.166 202.582 365.296 202.582ZM473.549 216.279C464.667 216.279 456.786 214.278 449.906 210.275C443.026 206.147 437.585 200.455 433.582 193.2C429.704 185.945 427.765 177.376 427.765 167.494C427.765 157.737 429.704 149.231 433.582 141.975C437.46 134.595 442.839 128.903 449.719 124.9C456.724 120.772 464.792 118.708 473.924 118.708C482.93 118.708 490.686 120.772 497.191 124.9C503.821 128.903 508.887 134.22 512.389 140.85C515.892 147.479 517.643 154.61 517.643 162.24C517.643 163.616 517.581 164.992 517.455 166.368C517.455 167.744 517.455 169.308 517.455 171.059H443.339C443.714 178.189 445.341 184.131 448.218 188.884C451.22 193.513 454.91 197.015 459.288 199.392C463.792 201.769 468.545 202.957 473.549 202.957C480.053 202.957 485.495 201.456 489.873 198.454C494.251 195.452 497.441 191.386 499.442 186.258H515.016C512.514 194.889 507.698 202.082 500.568 207.836C493.563 213.465 484.557 216.279 473.549 216.279ZM473.549 132.031C466.043 132.031 459.351 134.345 453.472 138.973C447.717 143.476 444.402 150.106 443.527 158.863H502.069C501.694 150.482 498.817 143.914 493.438 139.161C488.059 134.407 481.429 132.031 473.549 132.031ZM554.196 214.028L518.92 120.96H535.432L563.39 198.829L591.535 120.96H607.672L572.396 214.028H554.196ZM648.411 216.279C637.278 216.279 628.021 213.465 620.641 207.836C613.26 202.207 608.945 194.576 607.694 184.944H623.831C624.831 189.823 627.396 194.076 631.524 197.703C635.777 201.206 641.468 202.957 648.599 202.957C655.228 202.957 660.107 201.581 663.234 198.829C666.361 195.952 667.925 192.575 667.925 188.697C667.925 183.068 665.861 179.315 661.733 177.439C657.73 175.562 652.039 173.874 644.658 172.372C639.655 171.372 634.651 169.933 629.647 168.057C624.644 166.18 620.453 163.554 617.076 160.176C613.698 156.674 612.009 152.108 612.009 146.479C612.009 138.348 615.012 131.718 621.016 126.589C627.145 121.335 635.401 118.708 645.784 118.708C655.666 118.708 663.735 121.21 669.989 126.214C676.369 131.092 680.059 138.098 681.06 147.229H665.486C664.86 142.476 662.796 138.786 659.294 136.159C655.916 133.407 651.351 132.031 645.596 132.031C639.967 132.031 635.589 133.219 632.462 135.596C629.46 137.972 627.959 141.1 627.959 144.978C627.959 148.73 629.897 151.67 633.775 153.796C637.778 155.923 643.157 157.737 649.912 159.238C655.666 160.489 661.108 162.052 666.236 163.929C671.49 165.68 675.743 168.37 678.996 171.997C682.373 175.5 684.062 180.628 684.062 187.383C684.187 195.764 680.997 202.707 674.492 208.211C668.113 213.59 659.419 216.279 648.411 216.279ZM741.854 216.279C732.972 216.279 724.967 214.278 717.836 210.275C710.831 206.147 705.265 200.455 701.137 193.2C697.134 185.82 695.132 177.251 695.132 167.494C695.132 157.737 697.134 149.231 701.137 141.975C705.265 134.595 710.831 128.903 717.836 124.9C724.967 120.772 732.972 118.708 741.854 118.708C752.862 118.708 762.119 121.586 769.624 127.34C777.255 133.094 782.071 140.787 784.072 150.419H767.935C766.684 144.665 763.62 140.224 758.741 137.097C753.863 133.844 748.171 132.218 741.666 132.218C736.412 132.218 731.471 133.532 726.843 136.159C722.215 138.786 718.462 142.726 715.585 147.98C712.708 153.234 711.269 159.738 711.269 167.494C711.269 175.25 712.708 181.754 715.585 187.008C718.462 192.262 722.215 196.265 726.843 199.017C731.471 201.644 736.412 202.957 741.666 202.957C748.171 202.957 753.863 201.394 758.741 198.266C763.62 195.014 766.684 190.448 767.935 184.569H784.072C782.196 193.951 777.442 201.581 769.812 207.46C762.181 213.34 752.862 216.279 741.854 216.279ZM829.539 216.279C821.783 216.279 815.341 214.966 810.212 212.339C805.083 209.712 801.268 206.21 798.766 201.831C796.264 197.453 795.013 192.7 795.013 187.571C795.013 178.064 798.641 170.746 805.896 165.618C813.152 160.489 823.034 157.924 835.543 157.924H860.686V156.799C860.686 148.668 858.56 142.538 854.307 138.41C850.053 134.157 844.362 132.031 837.232 132.031C831.102 132.031 825.786 133.594 821.283 136.722C816.904 139.724 814.152 144.164 813.027 150.044H796.89C797.515 143.289 799.767 137.597 803.645 132.969C807.648 128.34 812.589 124.838 818.468 122.461C824.347 119.959 830.602 118.708 837.232 118.708C850.241 118.708 859.998 122.211 866.503 129.216C873.133 136.096 876.448 145.29 876.448 156.799V214.028H862.375L861.437 197.328C858.81 202.582 854.932 207.085 849.803 210.838C844.8 214.466 838.045 216.279 829.539 216.279ZM831.978 202.957C837.982 202.957 843.111 201.394 847.364 198.266C851.742 195.139 855.057 191.074 857.309 186.07C859.56 181.066 860.686 175.812 860.686 170.308V170.121H836.856C827.6 170.121 821.032 171.747 817.155 174.999C813.402 178.127 811.525 182.067 811.525 186.82C811.525 191.699 813.277 195.639 816.779 198.642C820.407 201.519 825.473 202.957 831.978 202.957ZM892.587 214.028V78.9296H908.349V214.028H892.587ZM968.52 216.279C959.638 216.279 951.758 214.278 944.878 210.275C937.998 206.147 932.556 200.455 928.553 193.2C924.676 185.945 922.737 177.376 922.737 167.494C922.737 157.737 924.676 149.231 928.553 141.975C932.431 134.595 937.81 128.903 944.69 124.9C951.695 120.772 959.764 118.708 968.895 118.708C977.902 118.708 985.657 120.772 992.162 124.9C998.792 128.903 1003.86 134.22 1007.36 140.85C1010.86 147.479 1012.61 154.61 1012.61 162.24C1012.61 163.616 1012.55 164.992 1012.43 166.368C1012.43 167.744 1012.43 169.308 1012.43 171.059H938.31C938.686 178.189 940.312 184.131 943.189 188.884C946.191 193.513 949.881 197.015 954.26 199.392C958.763 201.769 963.516 202.957 968.52 202.957C975.025 202.957 980.466 201.456 984.844 198.454C989.222 195.452 992.412 191.386 994.414 186.258H1009.99C1007.49 194.889 1002.67 202.082 995.54 207.836C988.534 213.465 979.528 216.279 968.52 216.279ZM968.52 132.031C961.014 132.031 954.322 134.345 948.443 138.973C942.689 143.476 939.374 150.106 938.498 158.863H997.041C996.665 150.482 993.788 143.914 988.409 139.161C983.03 134.407 976.401 132.031 968.52 132.031Z" fill="#CBD5E1"/>
<path d="M145.329 179.623V89.8686C145.329 78.0524 130.414 72.8758 123.094 82.1512L52.2548 171.905C45.8073 180.074 51.6259 192.08 62.0329 192.08H132.872C139.752 192.08 145.329 186.502 145.329 179.623Z" fill="#F16602"/>
</svg>
