<svg width="1046" height="300" viewBox="0 0 1046 300" fill="none" xmlns="http://www.w3.org/2000/svg">
<path d="M135.803 141.763L135.803 231.518C135.803 243.334 150.717 248.51 158.038 239.235L228.877 149.481C235.324 141.312 229.506 129.307 219.099 129.307L148.26 129.307C141.38 129.307 135.803 134.884 135.803 141.763Z" fill="#C84800"/>
<path d="M320.129 216.279C310.873 216.279 302.742 214.153 295.737 209.9C288.857 205.647 283.478 199.83 279.6 192.45C275.847 185.069 273.971 176.688 273.971 167.306C273.971 157.924 275.91 149.606 279.788 142.351C283.665 134.97 289.044 129.216 295.924 125.088C302.804 120.835 310.935 118.708 320.317 118.708C327.948 118.708 334.702 120.272 340.582 123.399C346.461 126.527 351.027 130.905 354.279 136.534V78.9296H370.041V214.028H355.78L354.279 198.642C351.277 203.145 346.961 207.21 341.332 210.838C335.703 214.466 328.636 216.279 320.129 216.279ZM321.818 202.582C328.073 202.582 333.577 201.143 338.33 198.266C343.209 195.264 346.961 191.136 349.588 185.882C352.34 180.628 353.716 174.499 353.716 167.494C353.716 160.489 352.34 154.359 349.588 149.106C346.961 143.852 343.209 139.786 338.33 136.909C333.577 133.907 328.073 132.406 321.818 132.406C315.689 132.406 310.185 133.907 305.306 136.909C300.553 139.786 296.8 143.852 294.048 149.106C291.421 154.359 290.108 160.489 290.108 167.494C290.108 174.499 291.421 180.628 294.048 185.882C296.8 191.136 300.553 195.264 305.306 198.266C310.185 201.143 315.689 202.582 321.818 202.582ZM430.071 216.279C421.19 216.279 413.309 214.278 406.429 210.275C399.549 206.147 394.107 200.455 390.105 193.2C386.227 185.945 384.288 177.376 384.288 167.494C384.288 157.737 386.227 149.231 390.105 141.975C393.982 134.595 399.361 128.903 406.241 124.9C413.246 120.772 421.315 118.708 430.446 118.708C439.453 118.708 447.208 120.772 453.713 124.9C460.343 128.903 465.409 134.22 468.912 140.85C472.414 147.479 474.166 154.61 474.166 162.24C474.166 163.616 474.103 164.992 473.978 166.368C473.978 167.744 473.978 169.308 473.978 171.059H399.862C400.237 178.189 401.863 184.131 404.74 188.884C407.742 193.513 411.433 197.015 415.811 199.392C420.314 201.769 425.067 202.957 430.071 202.957C436.576 202.957 442.017 201.456 446.395 198.454C450.774 195.452 453.963 191.386 455.965 186.258H471.539C469.037 194.889 464.221 202.082 457.091 207.836C450.086 213.465 441.079 216.279 430.071 216.279ZM430.071 132.031C422.566 132.031 415.873 134.345 409.994 138.973C404.24 143.476 400.925 150.106 400.049 158.863H458.592C458.216 150.482 455.339 143.914 449.96 139.161C444.582 134.407 437.952 132.031 430.071 132.031ZM510.718 214.028L475.442 120.96H491.954L519.912 198.829L548.058 120.96H564.194L528.919 214.028H510.718ZM604.933 216.279C593.8 216.279 584.544 213.465 577.163 207.836C569.783 202.207 565.467 194.576 564.216 184.944H580.353C581.354 189.823 583.918 194.076 588.046 197.703C592.299 201.206 597.991 202.957 605.121 202.957C611.751 202.957 616.629 201.581 619.757 198.829C622.884 195.952 624.448 192.575 624.448 188.697C624.448 183.068 622.384 179.315 618.256 177.439C614.253 175.562 608.561 173.874 601.181 172.372C596.177 171.372 591.173 169.933 586.17 168.057C581.166 166.18 576.976 163.554 573.598 160.176C570.221 156.674 568.532 152.108 568.532 146.479C568.532 138.348 571.534 131.718 577.539 126.589C583.668 121.335 591.924 118.708 602.306 118.708C612.189 118.708 620.257 121.21 626.512 126.214C632.891 131.092 636.581 138.098 637.582 147.229H622.008C621.383 142.476 619.319 138.786 615.816 136.159C612.439 133.407 607.873 132.031 602.119 132.031C596.49 132.031 592.112 133.219 588.984 135.596C585.982 137.972 584.481 141.1 584.481 144.978C584.481 148.73 586.42 151.67 590.298 153.796C594.301 155.923 599.68 157.737 606.434 159.238C612.189 160.489 617.63 162.052 622.759 163.929C628.013 165.68 632.266 168.37 635.518 171.997C638.896 175.5 640.584 180.628 640.584 187.383C640.709 195.764 637.52 202.707 631.015 208.211C624.635 213.59 615.941 216.279 604.933 216.279ZM698.376 216.279C689.495 216.279 681.489 214.278 674.359 210.275C667.354 206.147 661.787 200.455 657.659 193.2C653.656 185.82 651.655 177.251 651.655 167.494C651.655 157.737 653.656 149.231 657.659 141.975C661.787 134.595 667.354 128.903 674.359 124.9C681.489 120.772 689.495 118.708 698.376 118.708C709.384 118.708 718.641 121.586 726.146 127.34C733.777 133.094 738.593 140.787 740.594 150.419H724.458C723.207 144.665 720.142 140.224 715.264 137.097C710.385 133.844 704.693 132.218 698.189 132.218C692.935 132.218 687.994 133.532 683.365 136.159C678.737 138.786 674.984 142.726 672.107 147.98C669.23 153.234 667.792 159.738 667.792 167.494C667.792 175.25 669.23 181.754 672.107 187.008C674.984 192.262 678.737 196.265 683.365 199.017C687.994 201.644 692.935 202.957 698.189 202.957C704.693 202.957 710.385 201.394 715.264 198.266C720.142 195.014 723.207 190.448 724.458 184.569H740.594C738.718 193.951 733.965 201.581 726.334 207.46C718.704 213.34 709.384 216.279 698.376 216.279ZM786.061 216.279C778.305 216.279 771.863 214.966 766.734 212.339C761.606 209.712 757.79 206.21 755.289 201.831C752.787 197.453 751.536 192.7 751.536 187.571C751.536 178.064 755.164 170.746 762.419 165.618C769.674 160.489 779.556 157.924 792.065 157.924H817.209V156.799C817.209 148.668 815.082 142.538 810.829 138.41C806.576 134.157 800.884 132.031 793.754 132.031C787.625 132.031 782.308 133.594 777.805 136.722C773.427 139.724 770.675 144.164 769.549 150.044H753.412C754.038 143.289 756.289 137.597 760.167 132.969C764.17 128.34 769.111 124.838 774.99 122.461C780.87 119.959 787.124 118.708 793.754 118.708C806.764 118.708 816.521 122.211 823.025 129.216C829.655 136.096 832.97 145.29 832.97 156.799V214.028H818.897L817.959 197.328C815.332 202.582 811.454 207.085 806.326 210.838C801.322 214.466 794.567 216.279 786.061 216.279ZM788.5 202.957C794.505 202.957 799.633 201.394 803.886 198.266C808.265 195.139 811.58 191.074 813.831 186.07C816.083 181.066 817.209 175.812 817.209 170.308V170.121H793.379C784.122 170.121 777.555 171.747 773.677 174.999C769.924 178.127 768.048 182.067 768.048 186.82C768.048 191.699 769.799 195.639 773.302 198.642C776.929 201.519 781.996 202.957 788.5 202.957ZM849.11 214.028V78.9296H864.871V214.028H849.11ZM925.042 216.279C916.161 216.279 908.28 214.278 901.4 210.275C894.52 206.147 889.079 200.455 885.076 193.2C881.198 185.945 879.259 177.376 879.259 167.494C879.259 157.737 881.198 149.231 885.076 141.975C888.954 134.595 894.333 128.903 901.213 124.9C908.218 120.772 916.286 118.708 925.418 118.708C934.424 118.708 942.18 120.772 948.685 124.9C955.314 128.903 960.381 134.22 963.883 140.85C967.386 147.479 969.137 154.61 969.137 162.24C969.137 163.616 969.074 164.992 968.949 166.368C968.949 167.744 968.949 169.308 968.949 171.059H894.833C895.208 178.189 896.834 184.131 899.711 188.884C902.714 193.513 906.404 197.015 910.782 199.392C915.285 201.769 920.039 202.957 925.042 202.957C931.547 202.957 936.989 201.456 941.367 198.454C945.745 195.452 948.935 191.386 950.936 186.258H966.51C964.008 194.889 959.192 202.082 952.062 207.836C945.057 213.465 936.05 216.279 925.042 216.279ZM925.042 132.031C917.537 132.031 910.845 134.345 904.965 138.973C899.211 143.476 895.896 150.106 895.021 158.863H953.563C953.188 150.482 950.311 143.914 944.932 139.161C939.553 134.407 932.923 132.031 925.042 132.031Z" fill="#CBD5E1"/>
<path d="M146.183 179.623V89.8686C146.183 78.0524 131.269 72.8758 123.948 82.1512L53.1094 171.905C46.6619 180.074 52.4806 192.08 62.8875 192.08H133.727C140.606 192.08 146.183 186.502 146.183 179.623Z" fill="#F16602"/>
</svg>
